Coordinates
version=1
nRows=7
nColumns=40
inDegrees=yes

Units are S.I. units (second, meters, Newtons, ...)
Angles are in degrees.

endheader
time	pelvis_tilt	pelvis_list	pelvis_rotation	pelvis_tx	pelvis_ty	pelvis_tz	hip_flexion_r	hip_adduction_r	hip_rotation_r	knee_angle_r	knee_angle_r_beta	ankle_angle_r	subtalar_angle_r	mtp_angle_r	hip_flexion_l	hip_adduction_l	hip_rotation_l	knee_angle_l	knee_angle_l_beta	ankle_angle_l	subtalar_angle_l	mtp_angle_l	lumbar_extension	lumbar_bending	lumbar_rotation	arm_flex_r	arm_add_r	arm_rot_r	elbow_flex_r	pro_sup_r	wrist_flex_r	wrist_dev_r	arm_flex_l	arm_add_l	arm_rot_l	elbow_flex_l	pro_sup_l	wrist_flex_l	wrist_dev_l
     20.40500000	     -7.36270293	     -5.53453681	      6.29042659	      1.02373156	      0.92741833	      0.49430833	     14.28988786	      2.73610825	    -17.51971280	     16.45076918	     16.45076918	     11.05106894	     -2.73359326	     -0.54354231	     44.33551981	     -9.71606400	      5.24841716	     51.03082943	     51.03082943	      9.61349008	    -18.76828698	     17.20044852	    -13.95638745	      3.51763778	      3.72166542	     26.30331216	    -16.55014252	     -4.96604494	     79.85997321	     44.61861460	      0.00000000	      0.00000000	      4.26979565	     -6.78056605	     -5.06616155	     28.45661564	     47.34190121	      0.00000000	      0.00000000
     20.41657143	     -7.40586110	     -5.31669854	      6.41118484	      1.02191944	      0.92767197	      0.49342739	     13.63240348	      2.55800663	    -17.51737109	     16.02468123	     16.02468123	     11.32336592	     -2.57099969	     -0.62745507	     44.68985393	     -8.88279536	      5.72174252	     48.18327033	     48.18327033	      9.40925280	    -18.48573396	     16.85767085	    -14.16326352	      3.33992654	      2.81226779	     29.05139468	    -15.37069747	     -4.78533713	     83.51802263	     44.51325164	      0.00000000	      0.00000000	      2.95464177	     -6.91005220	     -5.06682966	     26.81589753	     47.30803331	      0.00000000	      0.00000000
     20.42814286	     -7.57150693	     -5.19530159	      6.46949803	      1.02006891	      0.92766348	      0.49237595	     13.11727425	      2.44309457	    -17.57945585	     15.59615168	     15.59615168	     11.52393778	     -2.25191906	     -0.78478792	     45.11451471	     -8.15055041	      6.38856505	     45.44507394	     45.44507394	      9.10071265	    -17.88210548	     16.09216173	    -14.13935772	      3.20362342	      2.70991033	     31.51537494	    -15.21533349	     -4.52069876	     86.81615214	     44.42123581	      0.00000000	      0.00000000	      1.98878242	     -6.70829163	     -5.08425529	     25.53572895	     47.28014472	      0.00000000	      0.00000000
     20.43971429	     -7.71074331	     -5.08525492	      6.46327825	      1.01843711	      0.92756168	      0.49125896	     12.53029125	      2.34057894	    -17.71019787	     15.11426789	     15.11426789	     11.69574130	     -1.74802751	     -1.26935149	     45.36595120	     -7.58158300	      6.94611626	     42.71623177	     42.71623177	      8.19828878	    -17.09680388	     13.45765155	    -14.14612558	      3.10257399	      3.49304641	     33.26416524	    -16.09011881	     -4.18804931	     91.14916879	     44.32925101	      0.00000000	      0.00000000	      1.59306422	     -6.38717562	     -5.21570770	     24.10407788	     47.24899174	      0.00000000	      0.00000000
     20.45128571	     -7.85208656	     -4.98092422	      6.43620093	      1.01688653	      0.92753319	      0.49003031	     11.88546883	      2.28999377	    -17.63424589	     14.51877339	     14.51877339	     11.91081740	     -1.46431519	     -1.33369538	     45.60958032	     -7.04364949	      7.58000709	     40.31942946	     40.31942946	      8.25014263	    -15.92677398	     13.29472698	    -14.08752024	      3.00777559	      3.52105661	     35.98490499	    -15.66972535	     -4.30017772	     93.33389394	     44.28457745	      0.00000000	      0.00000000	      0.51385596	     -6.26901499	     -5.19285339	     23.52577097	     47.21287821	      0.00000000	      0.00000000
     20.46285714	     -7.95446217	     -4.96422097	      6.39420622	      1.01557995	      0.92741188	      0.48868851	     11.12953166	      2.33115062	    -17.70678104	     13.80206670	     13.80206670	     12.07633777	     -0.91094245	     -1.46799088	     45.77149917	     -6.66069639	      8.22363244	     38.15961929	     38.15961929	      8.34960656	    -14.65447713	     12.96349050	    -14.06663981	      3.01840755	      3.56734111	     38.45149533	    -15.34197075	     -4.00628211	     96.01817478	     44.21460909	      0.00000000	      0.00000000	     -0.62993559	     -6.12459603	     -5.16316077	     23.22306265	     47.16718755	      0.00000000	      0.00000000
     20.47442857	     -8.03447645	     -4.95740743	      6.29809673	      1.01446516	      0.92724723	      0.48728286	     10.31521274	      2.39046918	    -17.75212275	     13.04698811	     13.04698811	     12.24652752	     -0.27525775	     -1.62491447	     45.82531826	     -6.38994048	      8.70573280	     36.21487298	     36.21487298	      8.44051024	    -13.53085044	     12.78325326	    -14.04925824	      3.04714254	      3.79506442	     40.86564356	    -15.21976150	     -3.63477875	     98.54586719	     44.14786196	      0.00000000	      0.00000000	     -1.75356427	     -5.98804350	     -5.11882506	     23.21565406	     47.11540739	      0.00000000	      0.00000000
